<svg width="6" height="11" viewBox="0 0 6 11" fill="none" xmlns="http://www.w3.org/2000/svg">
<path d="M5.92159 9.58583C5.97177 9.6356 6 9.70335 6 9.77403C6 9.8447 5.97177 9.91245 5.92159 9.96223L5.35965 10.5242C5.31155 10.5754 5.24439 10.6045 5.17411 10.6045C5.10382 10.6045 5.03666 10.5754 4.98856 10.5242L0.11663 5.65224C0.0420436 5.57774 9.34315e-05 5.47668 4.57503e-07 5.37127L4.69553e-07 5.23343C9.3462e-05 5.12802 0.0420437 5.02695 0.11663 4.95246L4.98856 0.080531C5.03666 0.0292796 5.10382 0.000206869 5.17411 0.000206875C5.24439 0.000206881 5.31155 0.0292796 5.35965 0.0805311L5.92159 0.642473C5.97178 0.692244 6 0.759995 6 0.830671C6 0.901348 5.97178 0.969098 5.92159 1.01887L1.63811 5.30235L5.92159 9.58583Z" fill="#474747"/>
</svg>
