<svg width="70" height="71" viewBox="0 0 70 71" fill="none" xmlns="http://www.w3.org/2000/svg">
<path fill-rule="evenodd" clip-rule="evenodd" d="M35 0.536133C6.1775 0.536133 0 6.71363 0 35.5361C0 64.3586 6.1775 70.5361 35 70.5361C63.8225 70.5361 70 64.3586 70 35.5361C70 6.71363 63.8225 0.536133 35 0.536133ZM25.76 22.79V46.5783H36.8851C41.4724 46.5783 44.9399 43.6228 44.9399 39.5139C44.9399 37.8908 44.42 36.5462 43.4778 35.5099C42.8299 34.7972 41.9823 34.2303 40.9667 33.8191C41.6629 33.0472 42.1014 32.1468 42.2954 31.1178C42.373 30.7053 42.4115 30.2722 42.4115 29.8184C42.4115 25.6735 38.9439 22.79 34.3567 22.79H25.76ZM46.3396 34.2752C45.9393 33.7143 45.4796 33.2146 44.973 32.7733C45.2775 31.8346 45.4216 30.8423 45.4216 29.8184C45.4216 23.6117 40.1716 19.7864 34.3567 19.7864H22.75V49.5818H36.8851C42.7326 49.5818 47.95 45.6564 47.95 39.5139C47.95 37.581 47.4188 35.7869 46.3396 34.2752ZM33.9593 32.1972C34.2373 32.1972 34.4948 32.168 34.7299 32.1122C35.7474 31.8708 36.3433 31.1314 36.3433 30.1067C36.3433 29.0819 35.7474 28.3426 34.7299 28.1012C34.4948 28.0454 34.2373 28.0162 33.9593 28.0162H31.7199V32.1972H33.9593ZM36.6512 38.3384C36.6541 38.3378 36.6555 38.3374 36.6554 38.3372C36.6552 38.3371 36.6506 38.3378 36.6422 38.3399C36.6461 38.3393 36.6491 38.3388 36.6512 38.3384ZM36.6422 40.1833C36.6513 40.1847 36.6556 40.1857 36.6554 40.1859C36.6552 40.1861 36.6506 40.1854 36.6422 40.1833ZM38.8717 39.2616C38.8717 40.6673 37.9687 41.3521 36.4878 41.3521H31.7199V37.1711H36.4878C37.9687 37.1711 38.8717 37.8559 38.8717 39.2616Z" fill="white"/>
</svg>
