<svg width="59" height="59" viewBox="0 0 59 59" fill="none" xmlns="http://www.w3.org/2000/svg">
<path fill-rule="evenodd" clip-rule="evenodd" d="M29.1197 0C5.13964 0 0 5.13964 0 29.1197C0 53.0999 5.13964 58.2395 29.1197 58.2395C53.0999 58.2395 58.2395 53.0999 58.2395 29.1197C58.2395 5.13964 53.0999 0 29.1197 0ZM21.4322 18.5149V38.3066H30.6881C34.5048 38.3066 37.3897 35.8476 37.3897 32.429C37.3897 31.0787 36.9571 29.9599 36.1732 29.0977C35.6342 28.5048 34.929 28.0332 34.084 27.6911C34.6632 27.0488 35.0281 26.2997 35.1894 25.4436C35.2541 25.1004 35.2861 24.74 35.2861 24.3624C35.2861 20.9139 32.4011 18.5149 28.5845 18.5149H21.4322ZM38.5542 28.0705C38.2212 27.6039 37.8387 27.1881 37.4172 26.821C37.6706 26.0399 37.7904 25.2143 37.7904 24.3624C37.7904 19.1985 33.4225 16.0159 28.5845 16.0159H18.9278V40.8055H30.6881C35.5532 40.8055 39.8941 37.5395 39.8941 32.429C39.8941 30.8209 39.4521 29.3282 38.5542 28.0705ZM28.2539 26.3416C28.4852 26.3416 28.6994 26.3173 28.8951 26.2709C29.7416 26.07 30.2374 25.4549 30.2374 24.6024C30.2374 23.7497 29.7416 23.1346 28.8951 22.9338C28.6994 22.8874 28.4852 22.8631 28.2539 22.8631H26.3907V26.3416H28.2539ZM30.4955 31.4506C30.4966 31.4503 30.4971 31.4501 30.497 31.4501C30.4969 31.45 30.4947 31.4503 30.4907 31.4512C30.4894 31.4515 30.4878 31.4519 30.4861 31.4523C30.4907 31.4516 30.4938 31.451 30.4955 31.4506ZM30.4861 32.986C30.4937 32.9872 30.4972 32.988 30.497 32.9882C30.4968 32.9883 30.4931 32.9877 30.4861 32.986ZM32.341 32.2192C32.341 33.3887 31.5897 33.9584 30.3576 33.9584H26.3907V30.4799H30.3576C31.5897 30.4799 32.341 31.0496 32.341 32.2192Z" fill="black"/>
</svg>
