<svg width="6" height="11" viewBox="0 0 6 11" fill="none" xmlns="http://www.w3.org/2000/svg">
<path d="M0.0784063 1.41478C0.0282258 1.36501 0 1.29726 0 1.22658C0 1.15591 0.0282258 1.08816 0.0784063 1.03839L0.640348 0.476443C0.688449 0.425191 0.755607 0.396118 0.825895 0.396118C0.896183 0.396118 0.963341 0.425191 1.01144 0.476443L5.88337 5.34837C5.95796 5.42287 5.99991 5.52393 6 5.62934L6 5.76718C5.99991 5.87259 5.95796 5.97366 5.88337 6.04815L1.01144 10.9201C0.963341 10.9713 0.896183 11.0004 0.825895 11.0004C0.755607 11.0004 0.688449 10.9713 0.640348 10.9201L0.0784063 10.3581C0.0282258 10.3084 0 10.2406 0 10.1699C0 10.0993 0.0282258 10.0315 0.0784063 9.98174L4.36189 5.69826L0.0784063 1.41478Z" fill="#474747"/>
</svg>
